M48
;GenerationSoftware,Autodesk,EAGLE,9.6.2*%
;CreationDate,2024-02-10T05:14:49Z*%
FMAT,2
ICI,OFF
METRIC,TZ,000.000
T6C0.350
T5C0.450
T4C0.800
T3C0.813
T2C1.016
T1C3.200
%
G90
M71
T1
X7620Y125730
X133350Y127000
X132080Y7620
X46830Y11430
X21954Y11430
X7620Y7620
T2
X118110Y57150
X118110Y74930
X118110Y77470
X132080Y100330
X76200Y11430
X78740Y11430
X115570Y16510
X115570Y22860
X115570Y29210
X127000Y30480
X127000Y22860
X127000Y15240
X76200Y73660
X132080Y88900
X107950Y128270
X100330Y127000
X67310Y11430
X92710Y127000
X82550Y127000
X71120Y127000
X62230Y127000
X132080Y111760
X53340Y127000
X45720Y127000
X38100Y127000
X27940Y127000
X10160Y110490
X99060Y8890
X101600Y8890
X30480Y30480
X27940Y30480
X25400Y30480
X22860Y30480
X20320Y30480
X17780Y30480
X118110Y44450
X118110Y46990
X118110Y49530
X118110Y52070
X118110Y54610
X59690Y11430
X26670Y53340
X26670Y55880
X26670Y58420
X26670Y60960
X118110Y64770
X118110Y67310
X118110Y69850
X118110Y72390
T3
X26670Y22860
X110490Y97790
X123190Y97790
X123190Y104140
X110490Y104140
X110490Y85090
X123190Y85090
X123190Y91440
X110490Y91440
X66040Y101600
X66040Y114300
X66040Y81280
X66040Y93980
X74930Y101600
X74930Y114300
X101600Y17780
X99060Y17780
X101600Y25400
X99060Y25400
X87630Y11430
X90170Y11430
X110490Y110490
X123190Y110490
X74930Y81280
X74930Y93980
X83820Y101600
X83820Y114300
X82550Y81280
X82550Y93980
X92710Y101600
X92710Y114300
X91440Y81280
X91440Y93980
X101600Y101600
X101600Y114300
X100330Y81280
X100330Y93980
X57150Y101600
X57150Y114300
X55880Y81280
X55880Y93980
X48260Y101600
X48260Y114300
X123190Y118110
X110490Y118110
X48260Y81280
X48260Y93980
X40640Y101600
X40640Y114300
X39370Y80010
X39370Y92710
X33020Y101600
X33020Y114300
X31750Y80010
X31750Y92710
X22860Y101600
X22860Y114300
X22860Y80010
X22860Y92710
X10160Y90170
X10160Y102870
X10160Y68580
X10160Y81280
X13970Y22860
T4
X88900Y58420
X91440Y58420
X93980Y58420
X96520Y58420
X50800Y39370
X50800Y58420
X48260Y58420
X48260Y39370
X93980Y39370
X31640Y8660
X34410Y8660
X37180Y8660
X39950Y8660
X30255Y12815
X33025Y12815
X35795Y12815
X38565Y12815
X53340Y39370
X55880Y39370
X58420Y39370
X60960Y39370
X63500Y39370
X66040Y39370
X68580Y39370
X71120Y39370
X73660Y39370
X76200Y39370
X78740Y39370
X81280Y39370
X83820Y39370
X86360Y39370
X88900Y39370
X91440Y39370
X28870Y8660
X96520Y39370
X53340Y58420
X55880Y58420
X58420Y58420
X60960Y58420
X63500Y58420
X66040Y58420
X68580Y58420
X71120Y58420
X76200Y58420
X73660Y58420
X78740Y58420
X81280Y58420
X83820Y58420
X86360Y58420
T5
X21590Y48260
X20320Y59690
X21590Y45720
X21590Y43180
X21590Y64770
X90170Y50800
X106680Y36830
X106680Y31750
X105410Y36830
X104140Y31750
X107950Y36830
X19050Y55880
X107950Y31750
T6
X96520Y36830
X109220Y55880
X60960Y36830
X60960Y35560
M30